<?xml version="1.0" encoding="UTF-8"?>
<svg id="Capa_2" data-name="Capa 2" xmlns="http://www.w3.org/2000/svg" viewBox="0 0 48.069824 65.551803">
  <defs>
    <style>
      .cls-1 {
        fill: #6b9c2e;
      }

      .cls-2 {
        fill: #b5cc5a;
      }
    </style>
  </defs>
  <g id="Capa_1-2" data-name="Capa 1">
    <g>
      <path class="cls-2" d="M48.069824,36.508834c0,4.774363-1.029785,9.129657-3.079834,13.054981-1.77002,3.374014-4.110107,6.163674-7.030029,8.368914v7.619073H9.72998v-7.938809c-2.75-2.139085-4.970215-4.82948-6.650146-8.049179-2.059814-3.925324-3.079834-8.280618-3.079834-13.054981h48.069824Z"/>
      <polygon class="cls-2" points="18.346053 34.722297 27.872046 .108089 27.872046 0 39.847295 0 23.093635 34.722297 18.346053 34.722297"/>
      <path class="cls-1" d="M25.199013,34.722297l4.927795-9.728904s2.488107-2.859243,4.403192,1.527787c0,0,.512012-1.732489,2.936076-1.88888,2.320028-.149679,5.058455,1.909878,4.784409,3.754828-.023427.157719-.114689.296855-.225739.411276-.381881.393474-1.219673,1.41289-.516738,2.179728,0,0,.997946-1.720105,3.42201-1.172736s1.954891,4.840494,1.954891,4.840494l-21.685896.076407Z"/>
      <path class="cls-1" d="M16.477907,34.722297l2.841737-9.948329s-.499152-1.626336-1.835162-2.476524-3.433277-.902979-5.131858,1.03931c-2.184231,2.497617-.337927,3.616596-2.492382,4.717762,0,0-2.419223-3.308012-4.836999-1.440819-2.184638,1.687146.629398,2.90416-1.089208,4.412324,0,0-1.24173-.804864-2.849018.394319C.100719,32.154716.00093,34.720825.00093,34.720825l16.476977.001472Z"/>
    </g>
  </g>
</svg>