<?xml version="1.0" encoding="UTF-8"?>
<svg id="Capa_2" data-name="Capa 2" xmlns="http://www.w3.org/2000/svg" viewBox="0 0 196.799849 196.799849">
  <defs>
    <style>
      .cls-1 {
        fill: #b0cc45;
      }

      .cls-2 {
        fill: #296e2f;
      }
    </style>
  </defs>
  <g id="Capa_1-2" data-name="Capa 1">
    <rect class="cls-2" width="196.799849" height="196.799849"/>
    <g>
      <path class="cls-1" d="M30.089018,129.28599c-1.255859,0-2.426758-.235352-3.513672-.706055-1.087891-.470703-2.045898-1.126465-2.875-1.967285-.830078-.840332-1.474609-1.815918-1.933594-2.925293-.459961-1.109863-.689453-2.303711-.689453-3.581543,0-1.703125.397461-3.245117,1.193359-4.623535.795898-1.378906,1.894531-2.48291,3.295898-3.3125,1.400391-.829102,2.986328-1.244141,4.757812-1.244141,1.591797-.021973,3.014648.258301,4.270508.84082,1.255859.583008,2.25293,1.390137,2.993164,2.420898l-3.49707,2.858398c-.404297-.60498-.924805-1.086914-1.563477-1.445801-.639648-.358398-1.351562-.538086-2.135742-.538086-.963867,0-1.804688.22998-2.522461.689453s-1.272461,1.070801-1.664062,1.83252c-.392578.762695-.588867,1.603027-.588867,2.521973,0,.896973.207031,1.731934.62207,2.505371s.986328,1.390137,1.714844,1.849609,1.575195.688965,2.539062.688965c.875,0,1.614258-.195801,2.219727-.588379.605469-.391602,1.131836-.891113,1.580078-1.496094l3.295898,2.85791c-.830078,1.054199-1.855469,1.87793-3.077148,2.47168s-2.696289.891113-4.421875.891113Z"/>
      <path class="cls-1" d="M46.902494,129.28599c-1.793945,0-3.396484-.415039-4.808594-1.244141s-2.516602-1.933594-3.3125-3.312012c-.795898-1.378906-1.193359-2.908691-1.193359-4.590332,0-1.681152.397461-3.216797,1.193359-4.606934.795898-1.389648,1.900391-2.499512,3.3125-3.329102,1.412109-.829102,3.014648-1.244141,4.808594-1.244141,1.81543,0,3.423828.415039,4.825195,1.244141,1.401367.82959,2.5,1.939453,3.295898,3.329102.794922,1.390137,1.193359,2.925781,1.193359,4.606934,0,1.681641-.398438,3.211426-1.193359,4.590332-.795898,1.378418-1.894531,2.48291-3.295898,3.312012s-3.009766,1.244141-4.825195,1.244141ZM46.902494,125.14976c.963867,0,1.804688-.229492,2.521484-.688965.717773-.459473,1.272461-1.070312,1.665039-1.833008.391602-.761719.588867-1.591309.588867-2.488281,0-.918945-.197266-1.759766-.588867-2.521973-.392578-.761719-.947266-1.373047-1.665039-1.83252-.716797-.459473-1.557617-.689453-2.521484-.689453s-1.804688.22998-2.522461.689453-1.272461,1.070801-1.664062,1.83252c-.392578.762207-.588867,1.603027-.588867,2.521973,0,.896973.196289,1.726562.588867,2.488281.391602.762695.946289,1.373535,1.664062,1.833008s1.558594.688965,2.522461.688965ZM45.255033,109.816264l1.479492-5.851562h4.640625l-2.959961,5.851562h-3.160156Z"/>
      <path class="cls-1" d="M66.036283,129.28599c-1.591797,0-3.042969-.40918-4.354492-1.227051-1.311523-.818359-2.353516-1.916992-3.126953-3.29541-.773438-1.378906-1.160156-2.90918-1.160156-4.590332,0-1.255371.223633-2.437988.671875-3.547852.448242-1.109375,1.064453-2.084473,1.849609-2.925293s1.698242-1.501953,2.741211-1.983887c1.041992-.481934,2.168945-.723145,3.378906-.723145,1.501953,0,2.678711.280762,3.53125.84082.851562.560547,1.512695,1.300293,1.983398,2.219238v-9.751953h4.540039v24.547852h-4.405273v-2.858398c-.470703.986816-1.137695,1.782227-2.000977,2.387695-.863281.60498-2.079102.907715-3.648438.907715ZM66.776518,125.183451c1.008789,0,1.876953-.229492,2.605469-.688965s1.294922-1.070312,1.698242-1.833008c.404297-.761719.605469-1.591309.605469-2.488281,0-.918945-.201172-1.759766-.605469-2.521973-.40332-.761719-.969727-1.378906-1.698242-1.849609s-1.59668-.706055-2.605469-.706055c-.963867,0-1.810547.22998-2.539062.689453s-1.294922,1.070801-1.698242,1.83252c-.40332.762207-.605469,1.603027-.605469,2.521973,0,.874512.202148,1.698242.605469,2.47168s.969727,1.395508,1.698242,1.866211,1.575195.706055,2.539062.706055Z"/>
      <path class="cls-1" d="M81.033354,109.91685c-.761719,0-1.40625-.263184-1.933594-.790039-.526367-.526367-.790039-1.160156-.790039-1.899902,0-.717285.263672-1.339355.790039-1.866211.527344-.526855,1.171875-.790527,1.933594-.790527.785156,0,1.43457.263672,1.951172.790527.514648.526855.773438,1.148926.773438,1.866211,0,.762207-.258789,1.401367-.773438,1.916504-.516602.516113-1.166016.773438-1.951172.773438ZM78.780424,128.848979v-17.486328h4.540039v17.486328h-4.540039Z"/>
      <path class="cls-1" d="M94.517729,136.011576c-1.771484,0-3.345703-.241211-4.724609-.723145-1.378906-.482422-2.594727-1.339844-3.648438-2.572266l2.825195-3.329102c.829102.941406,1.692383,1.580566,2.588867,1.916504.896484.336426,1.894531.504395,2.993164.504395.806641,0,1.557617-.20166,2.25293-.60498.694336-.403809,1.249023-.970215,1.664062-1.698242s.62207-1.552246.62207-2.47168v-.773438c-.470703.807129-1.115234,1.45752-1.933594,1.950684s-1.933594.739746-3.345703.739746c-1.591797,0-3.032227-.403809-4.321289-1.210938-1.289062-.806641-2.302734-1.888184-3.042969-3.244629s-1.109375-2.875488-1.109375-4.556641c0-1.681641.369141-3.205566,1.109375-4.573242.740234-1.367188,1.753906-2.449219,3.042969-3.245117,1.289062-.79541,2.729492-1.193848,4.321289-1.193848,1.457031,0,2.594727.258301,3.413086.773438.818359.516113,1.462891,1.199707,1.933594,2.05127v-2.387695h4.472656v15.939453c0,1.793457-.386719,3.340332-1.160156,4.640625-.773438,1.299805-1.844727,2.303223-3.211914,3.009766-1.367188.706055-2.947266,1.059082-4.741211,1.059082ZM94.551908,124.813822c1.500977,0,2.666992-.470703,3.49707-1.412598.829102-.941406,1.244141-2.095703,1.244141-3.463379,0-1.367188-.415039-2.521973-1.244141-3.463867-.830078-.941406-1.996094-1.412109-3.49707-1.412109-1.479492,0-2.628906.470703-3.447266,1.412109-.818359.941895-1.227539,2.09668-1.227539,3.463867,0,.874023.185547,1.681152.554688,2.420898.370117.740234.902344,1.334473,1.597656,1.782227.694336.44873,1.535156.672852,2.522461.672852Z"/>
      <path class="cls-1" d="M114.963041,129.28599c-1.793945,0-3.396484-.415039-4.808594-1.244141s-2.516602-1.933594-3.3125-3.312012c-.795898-1.378906-1.193359-2.908691-1.193359-4.590332,0-1.681152.397461-3.216797,1.193359-4.606934.795898-1.389648,1.900391-2.499512,3.3125-3.329102,1.412109-.829102,3.014648-1.244141,4.808594-1.244141,1.81543,0,3.423828.415039,4.825195,1.244141,1.401367.82959,2.5,1.939453,3.295898,3.329102.794922,1.390137,1.193359,2.925781,1.193359,4.606934,0,1.681641-.398438,3.211426-1.193359,4.590332-.795898,1.378418-1.894531,2.48291-3.295898,3.312012s-3.009766,1.244141-4.825195,1.244141ZM114.963041,125.14976c.963867,0,1.804688-.229492,2.521484-.688965.717773-.459473,1.272461-1.070312,1.665039-1.833008.391602-.761719.588867-1.591309.588867-2.488281,0-.918945-.197266-1.759766-.588867-2.521973-.392578-.761719-.947266-1.373047-1.665039-1.83252-.716797-.459473-1.557617-.689453-2.521484-.689453s-1.804688.22998-2.522461.689453-1.272461,1.070801-1.664062,1.83252c-.392578.762207-.588867,1.603027-.588867,2.521973,0,.896973.196289,1.726562.588867,2.488281.391602.762695.946289,1.373535,1.664062,1.833008s1.558594.688965,2.522461.688965Z"/>
      <path class="cls-1" d="M30.593901,168.080424l-10.946289-26.229004h8.070312l5.246094,14.980957c.470703,1.345215.839844,2.740723,1.109375,4.186523.269531-1.445801.638672-2.841309,1.110352-4.186523l5.246094-14.980957h7.918945l-10.895508,26.229004h-6.859375Z"/>
      <path class="cls-1" d="M60.504057,168.736186c-2.69043,0-5.061523-.622559-7.112305-1.866211s-3.639648-2.900391-4.766602-4.96875c-1.126953-2.067871-1.689453-4.362793-1.689453-6.884766s.587891-4.833984,1.765625-6.935547c1.176758-2.101562,2.782227-3.774414,4.817383-5.019043,2.03418-1.243652,4.362305-1.866211,6.985352-1.866211s4.93457.622559,6.935547,1.866211c2.000977,1.244629,3.564453,2.91748,4.691406,5.019043,1.125977,2.101562,1.689453,4.413574,1.689453,6.935547,0,.370117-.017578.756348-.050781,1.160156-.033203.40332-.083984.824219-.150391,1.260742h-19.62207c.370117,1.547363,1.118164,2.808105,2.245117,3.783203,1.125977.975586,2.546875,1.462891,4.261719,1.462891,1.479492,0,2.765625-.335938,3.859375-1.008789,1.091797-.672363,1.941406-1.513184,2.546875-2.522461l5.295898,3.984863c-1.041992,1.647949-2.606445,2.993652-4.69043,4.035645-2.085938,1.041504-4.422852,1.563477-7.011719,1.563477ZM60.403471,147.046733c-1.614258,0-2.993164.487793-4.136719,1.462891-1.143555.975586-1.899414,2.25293-2.269531,3.833496h12.963867c-.371094-1.445801-1.135742-2.689941-2.295898-3.73291-1.160156-1.041992-2.581055-1.563477-4.261719-1.563477Z"/>
      <path class="cls-1" d="M76.796049,168.080424v-26.229004h6.607422v4.993652c.436523-1.882812,1.328125-3.320801,2.673828-4.312988,1.344727-.991211,3.160156-1.419922,5.447266-1.286133v6.40625h-.958008c-1.951172,0-3.598633.622559-4.943359,1.866211-1.345703,1.244141-2.017578,2.959473-2.017578,5.14502v13.416992h-6.80957Z"/>
      <path class="cls-1" d="M104.487455,168.736186c-2.387695,0-4.564453-.61377-6.53125-1.841309-1.967773-1.227051-3.53125-2.875-4.691406-4.942871-1.160156-2.068359-1.740234-4.363281-1.740234-6.885254,0-1.882812.335938-3.656738,1.008789-5.321289.671875-1.664551,1.59668-3.127441,2.774414-4.388672,1.176758-1.260742,2.546875-2.252441,4.110352-2.976074,1.564453-.722656,3.253906-1.084473,5.069336-1.084473,2.25293,0,4.018555.420898,5.296875,1.26123,1.277344.84082,2.269531,1.950684,2.975586,3.329102v-14.62793h6.80957v36.821777h-6.607422v-4.287598c-.706055,1.480469-1.707031,2.67334-3.000977,3.581543-1.294922.907715-3.120117,1.361816-5.473633,1.361816ZM105.597807,162.582377c1.512695,0,2.81543-.344238,3.90918-1.03418,1.091797-.688477,1.941406-1.605469,2.546875-2.749023.605469-1.142578.908203-2.387207.908203-3.732422,0-1.378418-.302734-2.639648-.908203-3.783203-.605469-1.142578-1.455078-2.067871-2.546875-2.773926-1.09375-.706543-2.396484-1.05957-3.90918-1.05957-1.446289,0-2.71582.345215-3.808594,1.03418-1.092773.689453-1.942383,1.606445-2.546875,2.749023-.605469,1.143555-.908203,2.404785-.908203,3.783203,0,1.311523.302734,2.546875.908203,3.707031.604492,1.160156,1.454102,2.093262,2.546875,2.799805,1.092773.706055,2.362305,1.059082,3.808594,1.059082Z"/>
      <path class="cls-1" d="M136.164213,168.736186c-2.69043,0-5.061523-.622559-7.112305-1.866211s-3.639648-2.900391-4.766602-4.96875c-1.126953-2.067871-1.689453-4.362793-1.689453-6.884766s.587891-4.833984,1.765625-6.935547c1.176758-2.101562,2.782227-3.774414,4.817383-5.019043,2.03418-1.243652,4.362305-1.866211,6.985352-1.866211s4.93457.622559,6.935547,1.866211c2.000977,1.244629,3.564453,2.91748,4.691406,5.019043,1.125977,2.101562,1.689453,4.413574,1.689453,6.935547,0,.370117-.017578.756348-.050781,1.160156-.033203.40332-.083984.824219-.150391,1.260742h-19.62207c.370117,1.547363,1.118164,2.808105,2.245117,3.783203,1.125977.975586,2.546875,1.462891,4.261719,1.462891,1.479492,0,2.765625-.335938,3.859375-1.008789,1.091797-.672363,1.941406-1.513184,2.546875-2.522461l5.295898,3.984863c-1.041992,1.647949-2.606445,2.993652-4.69043,4.035645-2.085938,1.041504-4.422852,1.563477-7.011719,1.563477ZM136.063627,147.046733c-1.614258,0-2.993164.487793-4.136719,1.462891-1.143555.975586-1.899414,2.25293-2.269531,3.833496h12.963867c-.371094-1.445801-1.135742-2.689941-2.295898-3.73291-1.160156-1.041992-2.581055-1.563477-4.261719-1.563477Z"/>
      <path class="cls-1" d="M155.080229,168.736186c-1.311523,0-2.395508-.4375-3.253906-1.311523-.857422-.874023-1.286133-1.916504-1.286133-3.127441,0-1.176758.428711-2.20166,1.286133-3.07666.858398-.874023,1.942383-1.311523,3.253906-1.311523s2.386719.4375,3.228516,1.311523c.839844.875,1.260742,1.899902,1.260742,3.07666,0,1.210938-.420898,2.253418-1.260742,3.127441-.841797.874023-1.916992,1.311523-3.228516,1.311523Z"/>
    </g>
  </g>
</svg>