<?xml version="1.0" encoding="UTF-8"?>
<svg id="Capa_2" data-name="Capa 2" xmlns="http://www.w3.org/2000/svg" xmlns:xlink="http://www.w3.org/1999/xlink" viewBox="0 0 1920 936.134848">
  <defs>
    <style>
      .cls-1 {
        fill: none;
      }

      .cls-2 {
        fill: url(#patron55);
      }

      .cls-3 {
        fill: #6b9c2e;
      }

      .cls-4 {
        fill: #b5cc5a;
      }
    </style>
    <pattern id="patron55" x="0" y="0" width="523.160721" height="561.923716" patternTransform="translate(-3375.216562 -738.583)" patternUnits="userSpaceOnUse" viewBox="0 0 523.160721 561.923716">
      <g>
        <rect class="cls-1" width="523.160721" height="561.923716"/>
        <g>
          <g>
            <g>
              <path class="cls-4" d="M404.900194,410.821284c-.095893,3.772701-1.892107,8.133497-4.437226,11.132673-2.379519,2.821899-5.316426,7.678563-9.407621,8.137094-2.471459.549456-4.227744-1.720745-6.491604-1.907017-1.713337.006867-3.054614,1.661275-4.90772,1.887738-1.420696.197637-2.80862.014376-4.153335-.708922-5.957393-4.161261-11.260145-12.002955-11.464992-19.221877-1.348797-10.082528,4.793688-21.239911,14.301519-20.051776,1.521723.265518,3.055495,1.667142,3.694746,2.933849.613381,1.209195,1.572452,1.976311,2.96105,1.757911,2.0829-.301441,1.96829-2.555797,3.804833-3.821532.748835-.559111,1.656458-.857256,2.39935-.97038,10.700793-1.325751,14.335986,11.587424,13.725143,20.397846l-.024142.434393Z"/>
              <path class="cls-3" d="M382.360026,406.034659h.471679v.471679c0,1.65732-1.345534,3.002854-3.002854,3.002854h-.471679v-.471679c0-1.657321,1.345534-3.002855,3.002855-3.002855Z"/>
              <path class="cls-3" d="M389.309592,412.408516h.472191v.472192c0,1.657037-1.345304,3.002341-3.002341,3.002341h-.472192v-.472192c0-1.657037,1.345304-3.002342,3.002342-3.002342Z"/>
              <path class="cls-3" d="M386.714791,409.509193h.476244c1.65591,0,2.998289-1.34238,2.998289-2.998289v-.476244s-.476244,0-.476244,0c-1.65591,0-2.998289,1.34238-2.998289,2.998289v.476244Z"/>
              <path class="cls-3" d="M379.846951,415.883049h.477548c1.655189,0,2.996985-1.341796,2.996985-2.996985v-.477548s-.477548,0-.477548,0c-1.655189,0-2.996986,1.341796-2.996985,2.996985v.477548Z"/>
            </g>
            <polygon class="cls-4" points="383.652853 387.481077 385.709373 374.615811 395.910713 374.615811 386.237005 387.481077 383.652853 387.481077"/>
          </g>
          <g>
            <path class="cls-4" d="M297.516861,481.432173l-9.388831,12.833364h-4.031348l3.240277-12.833364h10.179902Z"/>
            <path class="cls-4" d="M284.121056,536.996941c-5.861444-.456216-12.553156-1.732245-16.626765-7.102894-1.457268-1.921263-2.81483-5.9993-2.515587-9.674175.499492-6.134052,8.659663-10.330412,10.64892-13.229039,2.601727-5.178657,4.6274-11.692557,11.757649-10.075815,3.967819.322581,6.123045,8.457899,9.039764,10.520927s5.066887,3.841153,7.004956,6.772463c.878692,1.329013,2.478488,6.054707,2.373795,8.33127-.171436,3.72789-1.79301,6.6714-3.31804,8.45155-4.552169,5.313695-10.698189,6.519353-18.364692,6.005711Z"/>
          </g>
          <g>
            <path class="cls-4" d="M214.976312,408.170625c-.246665,2.687462-1.947571,6.089275-3.759145,9.218937-1.819879,3.138175-3.410326,4.932619-7.279723,9.474011-2.338747,2.747-4.618111,5.281334-8.224025,5.00067-.306047.025539-.620814.042564-.935374.042564v.008461c-.314767,0-.629535-.016974-.935582-.042512-3.605914.280664-5.885071-2.25367-8.223818-5.00067-3.869604-4.541392-5.460052-6.335836-7.279931-9.474011-1.811366-3.129714-3.512273-6.531527-3.758937-9.218937-.476304-5.170771-.127693-7.764643,1.692394-10.928305,1.811366-3.155201,4.303136-4.345856,7.917563-5.315334,4.490419-1.207681,7.586185.399688,9.754883,1.182091.280508.10205.552712.170101.833428.204152v-.008513c.280508-.034051.552712-.10205.833428-.204101,2.16849-.782454,5.264256-2.389824,9.754675-1.182143,3.614427.969529,6.106197,2.160133,7.917563,5.315334,1.820086,3.163662,2.168698,5.757534,1.692602,10.928305Z"/>
            <path class="cls-3" d="M181.902308,403.455335c0,1.034557-.858007,2.244038-.85418,2.244038.004395,0-.85418-1.209481-.85418-2.244038s.382429-1.502423.85418-1.502423.85418.467866.85418,1.502423Z"/>
            <path class="cls-3" d="M188.396752,403.459511c0,1.034439-.855629,2.232513-.855629,2.239066,0-.006553-.855629-1.204627-.855629-2.239066s.382317-1.505804.855629-1.505804.855629.471366.855629,1.505804Z"/>
            <path class="cls-3" d="M185.592591,412.399131c0,1.034557-.858007,2.244038-.85418,2.244038.004395,0-.85418-1.209481-.85418-2.244038s.382429-1.502423.85418-1.502423.85418.467866.85418,1.502423Z"/>
            <path class="cls-3" d="M192.199707,411.806457c0,1.034439-.855629,2.232513-.855629,2.239066,0-.006553-.855629-1.204627-.855629-2.239066s.382317-1.505804.855629-1.505804.855629.471366.855629,1.505804Z"/>
            <path class="cls-3" d="M197.432715,411.806457c0,1.034439.855629,2.232513.855629,2.239066,0-.006553.855629-1.204627.855629-2.239066,0-1.034439-.382317-1.505804-.855629-1.505804s-.855629.471366-.855629,1.505804Z"/>
            <path class="cls-3" d="M189.4426,420.913769c0,1.034439-.855629,2.232513-.855629,2.239066,0-.006553-.855629-1.204627-.855629-2.239066s.382317-1.505804.855629-1.505804.855629.471366.855629,1.505804Z"/>
            <path class="cls-3" d="M194.439139,420.913769c0,1.034439.855629,2.232513.855629,2.239066,0-.006553.855629-1.204627.855629-2.239066,0-1.034439-.382317-1.505804-.855629-1.505804s-.855629.471366-.855629,1.505804Z"/>
            <path class="cls-3" d="M195.809544,403.342083c0,1.034557-.858007,2.244038-.85418,2.244038.004395,0-.85418-1.209481-.85418-2.244038s.382429-1.502423.85418-1.502423.85418.467866.85418,1.502423Z"/>
            <path class="cls-3" d="M202.303988,403.34626c0,1.034439-.855629,2.232513-.855629,2.239066,0-.006553-.855629-1.204627-.855629-2.239066s.382317-1.505804.855629-1.505804.855629.471366.855629,1.505804Z"/>
            <path class="cls-3" d="M204.779889,412.07975c0,1.034439.855629,2.232513.855629,2.239066,0-.006553.855629-1.204627.855629-2.239066,0-1.034439-.382317-1.505804-.855629-1.505804s-.855629.471366-.855629,1.505804Z"/>
            <path class="cls-3" d="M201.301343,420.913769c0,1.034439.855629,2.232513.855629,2.239066,0-.006553.855629-1.204627.855629-2.239066,0-1.034439-.382317-1.505804-.855629-1.505804s-.855629.471366-.855629,1.505804Z"/>
            <path class="cls-3" d="M209.651162,403.619553c0,1.034439-.855629,2.232513-.855629,2.239066,0-.006553-.855629-1.204627-.855629-2.239066s.382317-1.505804.855629-1.505804.855629.471366.855629,1.505804Z"/>
            <path class="cls-4" d="M207.416571,374.615811l-7.832642,10.715743-.578458.076512-.033844.008513h-.025539c-.051077.008513-.11918.017026-.212613.017026h-.017026l-.085128-.008513c-.493122-.017026-.977938-.221126-1.343575-.569789l-1.607473-1.522345-.51866-.493277,2.075056-8.223869h10.179902Z"/>
            <path class="cls-4" d="M205.562641,385.841805l-7.994386,3.62294-.782351.221126c-.501842.2381-1.046041.348663-1.590447.348663-.31456,0-.63784-.033999-.960913-.119076l-3.095767-1.309679-5.04313-2.296234,5.672457.544303c.042564.008513.085128.008513.127693.008513.37415,0,.714456-.153075.9524-.39974.127693-.119024.221126-.263638.289229-.425227.110667-.246613.135998-.53579.068103-.833428l-.765533-3.1892,2.364285,2.245209,1.607265,1.522293c.595483.561328,1.369321.884453,2.168698.918504.051077.008513.093641.008513.144718.008513.153023,0,.297534-.008513.442252-.034051l6.395426-.833428Z"/>
          </g>
          <g>
            <path class="cls-4" d="M494.518996,481.432173l-12.749092,32.684581h-4.113038l6.488632-32.684581h10.373498Z"/>
            <path class="cls-4" d="M502.964846,516.110466c0,3.749374-.883238,7.169647-2.666942,10.252259-1.775037,3.082612-4.22561,5.550466-7.360173,7.394843-3.125896,1.853045-6.728081,2.779514-10.780553,2.779514-4.009028,0-7.585317-.926469-10.745777-2.779514-3.151899-1.844377-5.6197-4.312232-7.394843-7.394843-1.78381-3.082612-2.666942-6.502885-2.666942-10.252259"/>
            <rect class="cls-4" x="471.188017" y="531.991173" width="21.938427" height="4.54591"/>
            <path class="cls-3" d="M484.262766,514.246977l4.26875-10.524699s2.668858-1.146148,3.023699,1.634251c0,0,1.233625-2.624299,3.312757-2.964521,2.674469-.43764,4.263184,1.896553,4.263168,3.821873-.000003.344765.000016,1.667121-.789531,1.943462-.530983.185844-1.352792,1.467469-.744119,2.354455,0,0,.853518-1.953322,2.963128-1.356481,2.921502.826537,2.402468,4.958749,2.402468,4.958749l-18.700322.13291Z"/>
            <path class="cls-3" d="M475.373336,514.116754l2.19582-10.473981s.542287-1.925959-1.069936-3.171756c-1.20145-.928384-4.255807-.893933-5.726613,1.352674-1.891332,2.888945.990311,4.032722-.875237,5.306418,0,0-2.489277-3.338649-4.582836-1.178902-1.891684,1.951489.939462,2.87152-.548683,4.615985,0,0-1.018089-.871184-2.466972.456101-1.759916,1.612215-1.193001,3.091759-1.193001,3.091759l14.26746.001702Z"/>
          </g>
        </g>
        <g>
          <g>
            <path class="cls-4" d="M166.048318,480.484294c.007625,0,.01202.008659.00752.014814l-9.378,12.827011h-4.01939c-.006069,0-.010518-.005711-.009033-.011595l1.557237-6.171621c.987885-3.915174,4.509534-6.658608,8.547418-6.658608h3.294247Z"/>
            <path class="cls-4" d="M174.367802,515.975631c.076408,14.70432-18.982177,20.776569-21.635691,20.070679-2.262131-1.998545-5.749073-2.194132-9.576113-4.06514-6.106197-2.9851-9.814265-9.414525-9.652521-16.209639.178562-6.999266,3.76745-14.109044,10.094773-17.332244.927069-.552815,1.887982-1.012042,2.866127-1.394756-1.70942,1.216142-3.172174,2.763973-4.345908,4.515905-6.803627,10.171441-1.462755,18.446335-1.258654,18.760999-.101946-.357176-2.738435-9.227398,2.712896-17.272706,4.668981-6.888651,12.323061-6.888651,15.248778-6.608039,8.691608,2.219723,15.988565,9.720728,15.546312,19.534941Z"/>
          </g>
          <g>
            <path class="cls-4" d="M67.970567,374.615811l-9.388831,12.841825h-4.031348l3.240277-12.841825h10.179902Z"/>
            <path class="cls-4" d="M76.271,410.105213c0,3.69099-.875784,7.05024-2.619255,10.077852-1.751984,3.019151-4.158833,5.442922-7.237366,7.262905-3.070228,1.819983-6.599526,2.729922-10.57959,2.729922-3.94622,0-7.458493-.909939-10.554259-2.729922-3.104072-1.819983-5.527947-4.243754-7.271418-7.262905-1.751776-3.027612-2.619255-6.386861-2.619255-10.077852,0-3.682478.867479-7.058753,2.619255-10.10339,1.743471-3.053098,4.167346-5.485435,7.271418-7.305365,3.095767-1.819983,6.608039-2.729974,10.554259-2.729974,3.980064,0,7.509362.909991,10.57959,2.729974,3.078533,1.819931,5.485383,4.252267,7.237366,7.305365,1.743471,3.044638,2.619255,6.420912,2.619255,10.10339Z"/>
            <path class="cls-3" d="M51.763476,409.237734h-12.408874c-.492495,0-.895753-.420025-.849016-.910297.333894-3.502519,1.713764-6.696958,3.821975-9.281193.312262-.38277.89547-.396029,1.24477-.046731l8.79073,8.790688c.534177.534175.155853,1.447533-.599586,1.447533Z"/>
            <path class="cls-3" d="M52.36307,412.352173l-8.766097,8.766097c-.348971.348971-.931516.336144-1.244001-.045843-2.106779-2.57536-3.487872-5.760069-3.841507-9.252639-.049809-.491927.354002-.915147.848443-.915147h12.403575c.755438,0,1.133763.913357.599587,1.447532Z"/>
            <path class="cls-3" d="M54.992641,393.560728v12.439262c0,.755441-.913363,1.133764-1.447536.599583l-8.791605-8.79173c-.348904-.348909-.336133-.931292.04563-1.243908,2.583758-2.115777,5.77776-3.503868,9.279915-3.851883.491396-.048831.913596.35486.913596.848676Z"/>
            <path class="cls-3" d="M54.992641,414.142437v12.362689c0,.4938-.422136.897385-.913517.848564-3.484404-.346189-6.666951-1.718166-9.241425-3.809746-.383855-.311855-.397656-.895897-.047946-1.245612l8.755352-8.755478c.534174-.534181,1.447536-.155858,1.447536.599583Z"/>
            <path class="cls-3" d="M66.824716,423.544058c-2.569394,2.091547-5.757662,3.463489-9.243007,3.809647-.491379.048803-.913493-.354772-.913493-.848568v-12.3627c0-.755441.913363-1.133764,1.447536-.599583l8.756126,8.756252c.349427.349432.336082.932983-.047163,1.244953Z"/>
            <path class="cls-3" d="M66.908127,397.807073l-8.792374,8.7925c-.534174.534181-1.447536.155858-1.447536-.599583v-12.439273c0-.493812.422178-.897494.913571-.84868,3.503098.347985,6.702836,1.736043,9.281491,3.851789.381152.31273.393469.894621.044848,1.243248Z"/>
            <path class="cls-3" d="M73.149393,411.819788c-.353635,3.49257-1.734728,6.677279-3.841507,9.252639-.312485.381987-.89503.394814-1.244001.045843l-8.766097-8.766097c-.534175-.534175-.155851-1.447532.599587-1.447532h12.403575c.494442,0,.898253.42322.848443.915147Z"/>
            <path class="cls-3" d="M72.306262,409.237734h-12.417394c-.755439,0-1.133763-.913359-.599586-1.447533l8.799144-8.799102c.349336-.349335.932648-.336063,1.244853.04682,2.108103,2.585336,3.488112,5.786004,3.822003,9.289542.046723.490271-.356528.910274-.84902.910274Z"/>
          </g>
        </g>
        <g>
          <g>
            <g>
              <path class="cls-4" d="M230.513286,223.513378c-.095893,3.772701-1.892107,8.133497-4.437226,11.132673-2.379519,2.821899-5.316426,7.678563-9.407621,8.137094-2.471459.549456-4.227744-1.720745-6.491604-1.907017-1.713337.006867-3.054614,1.661275-4.90772,1.887738-1.420696.197637-2.80862.014376-4.153335-.708922-5.957393-4.161261-11.260145-12.002955-11.464992-19.221877-1.348797-10.082528,4.793688-21.239911,14.301519-20.051776,1.521723.265518,3.055495,1.667142,3.694746,2.933849.613381,1.209195,1.572452,1.976311,2.96105,1.757911,2.0829-.301441,1.96829-2.555797,3.804833-3.821532.748835-.559111,1.656458-.857256,2.39935-.97038,10.700793-1.325751,14.335986,11.587424,13.725143,20.397846l-.024142.434393Z"/>
              <path class="cls-3" d="M207.973118,218.726754h.471679v.471679c0,1.65732-1.345534,3.002854-3.002854,3.002854h-.471679v-.471679c0-1.657321,1.345534-3.002855,3.002855-3.002855Z"/>
              <path class="cls-3" d="M214.922685,225.100611h.472191v.472192c0,1.657037-1.345304,3.002341-3.002341,3.002341h-.472192v-.472192c0-1.657037,1.345304-3.002342,3.002342-3.002342Z"/>
              <path class="cls-3" d="M212.327884,222.201287h.476244c1.65591,0,2.998289-1.34238,2.998289-2.998289v-.476244s-.476244,0-.476244,0c-1.65591,0-2.998289,1.34238-2.998289,2.998289v.476244Z"/>
              <path class="cls-3" d="M205.460044,228.575144h.477548c1.655189,0,2.996985-1.341796,2.996985-2.996985v-.477548s-.477548,0-.477548,0c-1.655189,0-2.996986,1.341796-2.996985,2.996985v.477548Z"/>
            </g>
            <polygon class="cls-4" points="209.265946 200.173172 211.322466 187.307905 221.523806 187.307905 211.850098 200.173172 209.265946 200.173172"/>
          </g>
          <g>
            <path class="cls-4" d="M514.822132,293.176389c.007625,0,.01202.008659.00752.014814l-9.378,12.827011h-4.01939c-.006069,0-.010518-.005711-.009033-.011595l1.557237-6.171621c.987885-3.915174,4.509534-6.658608,8.547418-6.658608h3.294247Z"/>
            <path class="cls-4" d="M523.141617,328.667726c.076408,14.70432-18.982177,20.776569-21.635691,20.070679-2.262131-1.998545-5.749073-2.194132-9.576113-4.06514-6.106197-2.9851-9.814265-9.414525-9.652521-16.209639.178562-6.999266,3.76745-14.109044,10.094773-17.332244.927069-.552815,1.887982-1.012042,2.866127-1.394756-1.70942,1.216142-3.172174,2.763973-4.345908,4.515905-6.803627,10.171441-1.462755,18.446335-1.258654,18.760999-.101946-.357176-2.738435-9.227398,2.712896-17.272706,4.668981-6.888651,12.323061-6.888651,15.248778-6.608039,8.691608,2.219723,15.988565,9.720728,15.546312,19.534941Z"/>
          </g>
          <g>
            <path class="cls-4" d="M123.129954,294.124268l-9.388831,12.833364h-4.031348l3.240277-12.833364h10.179902Z"/>
            <path class="cls-4" d="M109.734149,349.689036c-5.861444-.456216-12.553156-1.732245-16.626765-7.102894-1.457268-1.921263-2.81483-5.9993-2.515587-9.674175.499492-6.134052,8.659663-10.330412,10.64892-13.229039,2.601727-5.178657,4.6274-11.692557,11.757649-10.075815,3.967819.322581,6.123045,8.457899,9.039764,10.520927s5.066887,3.841153,7.004956,6.772463c.878692,1.329013,2.478488,6.054707,2.373795,8.33127-.171436,3.72789-1.79301,6.6714-3.31804,8.45155-4.552169,5.313695-10.698189,6.519353-18.364692,6.005711Z"/>
          </g>
          <g>
            <path class="cls-4" d="M40.589405,220.86272c-.246665,2.687462-1.947571,6.089275-3.759145,9.218937-1.819879,3.138175-3.410326,4.932619-7.279723,9.474011-2.338747,2.747-4.618111,5.281334-8.224025,5.00067-.306047.025539-.620814.042564-.935374.042564v.008461c-.314767,0-.629535-.016974-.935582-.042512-3.605914.280664-5.885071-2.25367-8.223818-5.00067-3.869604-4.541392-5.460052-6.335836-7.279931-9.474011-1.811366-3.129714-3.512273-6.531527-3.758937-9.218937-.476304-5.170771-.127693-7.764643,1.692394-10.928305,1.811366-3.155201,4.303136-4.345856,7.917563-5.315334,4.490419-1.207681,7.586185.399688,9.754883,1.182091.280508.10205.552712.170101.833428.204152v-.008513c.280508-.034051.552712-.10205.833428-.204101,2.16849-.782454,5.264256-2.389824,9.754675-1.182143,3.614427.969529,6.106197,2.160133,7.917563,5.315334,1.820086,3.163662,2.168698,5.757534,1.692602,10.928305Z"/>
            <path class="cls-3" d="M7.515401,216.147429c0,1.034557-.858007,2.244038-.85418,2.244038.004395,0-.85418-1.209481-.85418-2.244038s.382429-1.502423.85418-1.502423.85418.467866.85418,1.502423Z"/>
            <path class="cls-3" d="M14.009845,216.151606c0,1.034439-.855629,2.232513-.855629,2.239066,0-.006553-.855629-1.204627-.855629-2.239066s.382317-1.505804.855629-1.505804.855629.471366.855629,1.505804Z"/>
            <path class="cls-3" d="M11.205684,225.091226c0,1.034557-.858007,2.244038-.85418,2.244038.004395,0-.85418-1.209481-.85418-2.244038s.382429-1.502423.85418-1.502423.85418.467866.85418,1.502423Z"/>
            <path class="cls-3" d="M17.8128,224.498551c0,1.034439-.855629,2.232513-.855629,2.239066,0-.006553-.855629-1.204627-.855629-2.239066s.382317-1.505804.855629-1.505804.855629.471366.855629,1.505804Z"/>
            <path class="cls-3" d="M23.045808,224.498551c0,1.034439.855629,2.232513.855629,2.239066,0-.006553.855629-1.204627.855629-2.239066,0-1.034439-.382317-1.505804-.855629-1.505804s-.855629.471366-.855629,1.505804Z"/>
            <path class="cls-3" d="M15.055693,233.605864c0,1.034439-.855629,2.232513-.855629,2.239066,0-.006553-.855629-1.204627-.855629-2.239066s.382317-1.505804.855629-1.505804.855629.471366.855629,1.505804Z"/>
            <path class="cls-3" d="M20.052232,233.605864c0,1.034439.855629,2.232513.855629,2.239066,0-.006553.855629-1.204627.855629-2.239066,0-1.034439-.382317-1.505804-.855629-1.505804s-.855629.471366-.855629,1.505804Z"/>
            <path class="cls-3" d="M21.422637,216.034178c0,1.034557-.858007,2.244038-.85418,2.244038.004395,0-.85418-1.209481-.85418-2.244038s.382429-1.502423.85418-1.502423.85418.467866.85418,1.502423Z"/>
            <path class="cls-3" d="M27.917081,216.038354c0,1.034439-.855629,2.232513-.855629,2.239066,0-.006553-.855629-1.204627-.855629-2.239066s.382317-1.505804.855629-1.505804.855629.471366.855629,1.505804Z"/>
            <path class="cls-3" d="M30.392982,224.771845c0,1.034439.855629,2.232513.855629,2.239066,0-.006553.855629-1.204627.855629-2.239066,0-1.034439-.382317-1.505804-.855629-1.505804s-.855629.471366-.855629,1.505804Z"/>
            <path class="cls-3" d="M26.914436,233.605864c0,1.034439.855629,2.232513.855629,2.239066,0-.006553.855629-1.204627.855629-2.239066,0-1.034439-.382317-1.505804-.855629-1.505804s-.855629.471366-.855629,1.505804Z"/>
            <path class="cls-3" d="M35.264255,216.311647c0,1.034439-.855629,2.232513-.855629,2.239066,0-.006553-.855629-1.204627-.855629-2.239066s.382317-1.505804.855629-1.505804.855629.471366.855629,1.505804Z"/>
            <path class="cls-4" d="M33.029664,187.307905l-7.832642,10.715743-.578458.076512-.033844.008513h-.025539c-.051077.008513-.11918.017026-.212613.017026h-.017026l-.085128-.008513c-.493122-.017026-.977938-.221126-1.343575-.569789l-1.607473-1.522345-.51866-.493277,2.075056-8.223869h10.179902Z"/>
            <path class="cls-4" d="M31.175734,198.5339l-7.994386,3.62294-.782351.221126c-.501842.2381-1.046041.348663-1.590447.348663-.31456,0-.63784-.033999-.960913-.119076l-3.095767-1.309679-5.04313-2.296234,5.672457.544303c.042564.008513.085128.008513.127693.008513.37415,0,.714456-.153075.9524-.39974.127693-.119024.221126-.263638.289229-.425227.110667-.246613.135998-.53579.068103-.833428l-.765533-3.1892,2.364285,2.245209,1.607265,1.522293c.595483.561328,1.369321.884453,2.168698.918504.051077.008513.093641.008513.144718.008513.153023,0,.297534-.008513.442252-.034051l6.395426-.833428Z"/>
          </g>
          <g>
            <path class="cls-4" d="M416.744381,187.307905l-9.388831,12.841825h-4.031348l3.240277-12.841825h10.179902Z"/>
            <path class="cls-4" d="M425.044815,222.797308c0,3.69099-.875784,7.05024-2.619255,10.077852-1.751984,3.019151-4.158833,5.442922-7.237366,7.262905-3.070228,1.819983-6.599526,2.729922-10.57959,2.729922-3.94622,0-7.458493-.909939-10.554259-2.729922-3.104072-1.819983-5.527947-4.243754-7.271418-7.262905-1.751776-3.027612-2.619255-6.386861-2.619255-10.077852,0-3.682478.867479-7.058753,2.619255-10.10339,1.743471-3.053098,4.167346-5.485435,7.271418-7.305365,3.095767-1.819983,6.608039-2.729974,10.554259-2.729974,3.980064,0,7.509362.909991,10.57959,2.729974,3.078533,1.819931,5.485383,4.252267,7.237366,7.305365,1.743471,3.044638,2.619255,6.420912,2.619255,10.10339Z"/>
            <path class="cls-3" d="M400.53729,221.929828h-12.408874c-.492495,0-.895753-.420025-.849016-.910297.333894-3.502519,1.713764-6.696958,3.821975-9.281193.312262-.38277.89547-.396029,1.24477-.046731l8.79073,8.790688c.534177.534175.155853,1.447533-.599586,1.447533Z"/>
            <path class="cls-3" d="M401.136884,225.044268l-8.766097,8.766097c-.348971.348971-.931516.336144-1.244001-.045843-2.106779-2.57536-3.487872-5.760069-3.841507-9.252639-.049809-.491927.354002-.915147.848443-.915147h12.403575c.755438,0,1.133763.913357.599587,1.447532Z"/>
            <path class="cls-3" d="M403.766455,206.252823v12.439262c0,.755441-.913363,1.133764-1.447536.599583l-8.791605-8.79173c-.348904-.348909-.336133-.931292.04563-1.243908,2.583758-2.115777,5.77776-3.503868,9.279915-3.851883.491396-.048831.913596.35486.913596.848676Z"/>
            <path class="cls-3" d="M403.766455,226.834531v12.362689c0,.4938-.422136.897385-.913517.848564-3.484404-.346189-6.666951-1.718166-9.241425-3.809746-.383855-.311855-.397656-.895897-.047946-1.245612l8.755352-8.755478c.534174-.534181,1.447536-.155858,1.447536.599583Z"/>
            <path class="cls-3" d="M415.59853,236.236153c-2.569394,2.091547-5.757662,3.463489-9.243007,3.809647-.491379.048803-.913493-.354772-.913493-.848568v-12.3627c0-.755441.913363-1.133764,1.447536-.599583l8.756126,8.756252c.349427.349432.336082.932983-.047163,1.244953Z"/>
            <path class="cls-3" d="M415.681941,210.499168l-8.792374,8.7925c-.534174.534181-1.447536.155858-1.447536-.599583v-12.439273c0-.493812.422178-.897494.913571-.84868,3.503098.347985,6.702836,1.736043,9.281491,3.851789.381152.31273.393469.894621.044848,1.243248Z"/>
            <path class="cls-3" d="M421.923207,224.511882c-.353635,3.49257-1.734728,6.677279-3.841507,9.252639-.312485.381987-.89503.394814-1.244001.045843l-8.766097-8.766097c-.534175-.534175-.155851-1.447532.599587-1.447532h12.403575c.494442,0,.898253.42322.848443.915147Z"/>
            <path class="cls-3" d="M421.080077,221.929828h-12.417394c-.755439,0-1.133763-.913359-.599586-1.447533l8.799144-8.799102c.349336-.349335.932648-.336063,1.244853.04682,2.108103,2.585336,3.488112,5.786004,3.822003,9.289542.046723.490271-.356528.910274-.84902.910274Z"/>
          </g>
          <g>
            <path class="cls-4" d="M320.132089,294.124268l-12.749092,32.684581h-4.113038l6.488632-32.684581h10.373498Z"/>
            <path class="cls-4" d="M328.577939,328.802561c0,3.749374-.883238,7.169647-2.666942,10.252259-1.775037,3.082612-4.22561,5.550466-7.360173,7.394843-3.125896,1.853045-6.728081,2.779514-10.780553,2.779514-4.009028,0-7.585317-.926469-10.745777-2.779514-3.151899-1.844377-5.6197-4.312232-7.394843-7.394843-1.78381-3.082612-2.666942-6.502885-2.666942-10.252259"/>
            <rect class="cls-4" x="296.80111" y="344.683268" width="21.938427" height="4.54591"/>
            <path class="cls-3" d="M309.875859,326.939072l4.26875-10.524699s2.668858-1.146148,3.023699,1.634251c0,0,1.233625-2.624299,3.312757-2.964521,2.674469-.43764,4.263184,1.896553,4.263168,3.821873-.000003.344765.000016,1.667121-.789531,1.943462-.530983.185844-1.352792,1.467469-.744119,2.354455,0,0,.853518-1.953322,2.963128-1.356481,2.921502.826537,2.402468,4.958749,2.402468,4.958749l-18.700322.13291Z"/>
            <path class="cls-3" d="M300.986429,326.808849l2.19582-10.473981s.542287-1.925959-1.069936-3.171756c-1.20145-.928384-4.255807-.893933-5.726613,1.352674-1.891332,2.888945.990311,4.032722-.875237,5.306418,0,0-2.489277-3.338649-4.582836-1.178902-1.891684,1.951489.939462,2.87152-.548683,4.615985,0,0-1.018089-.871184-2.466972.456101-1.759916,1.612215-1.193001,3.091759-1.193001,3.091759l14.26746.001702Z"/>
          </g>
        </g>
        <g>
          <g>
            <path class="cls-4" d="M471.903768,106.816362l-9.388831,12.833364h-4.031348l3.240277-12.833364h10.179902Z"/>
            <path class="cls-4" d="M458.507963,162.381131c-5.861444-.456216-12.553156-1.732245-16.626765-7.102894-1.457268-1.921263-2.81483-5.9993-2.515587-9.674175.499492-6.134052,8.659663-10.330412,10.64892-13.229039,2.601727-5.178657,4.6274-11.692557,11.757649-10.075815,3.967819.322581,6.123045,8.457899,9.039764,10.520927s5.066887,3.841153,7.004956,6.772463c.878692,1.329013,2.478488,6.054707,2.373795,8.33127-.171436,3.72789-1.79301,6.6714-3.31804,8.45155-4.552169,5.313695-10.698189,6.519353-18.364692,6.005711Z"/>
          </g>
          <g>
            <path class="cls-4" d="M389.363219,33.554814c-.246665,2.687462-1.947571,6.089275-3.759145,9.218937-1.819879,3.138175-3.410326,4.932619-7.279723,9.474011-2.338747,2.747-4.618111,5.281334-8.224025,5.00067-.306047.025539-.620814.042564-.935374.042564v.008461c-.314767,0-.629535-.016974-.935582-.042512-3.605914.280664-5.885071-2.25367-8.223818-5.00067-3.869604-4.541392-5.460052-6.335836-7.279931-9.474011-1.811366-3.129714-3.512273-6.531527-3.758937-9.218937-.476304-5.170771-.127693-7.764643,1.692394-10.928305,1.811366-3.155201,4.303136-4.345856,7.917563-5.315334,4.490419-1.207681,7.586185.399688,9.754883,1.182091.280508.10205.552712.170101.833428.204152v-.008513c.280508-.034051.552712-.10205.833428-.204101,2.16849-.782454,5.264256-2.389824,9.754675-1.182143,3.614427.969529,6.106197,2.160133,7.917563,5.315334,1.820086,3.163662,2.168698,5.757534,1.692602,10.928305Z"/>
            <path class="cls-3" d="M356.289215,28.839524c0,1.034557-.858007,2.244038-.85418,2.244038.004395,0-.85418-1.209481-.85418-2.244038s.382429-1.502423.85418-1.502423.85418.467866.85418,1.502423Z"/>
            <path class="cls-3" d="M362.783659,28.8437c0,1.034439-.855629,2.232513-.855629,2.239066,0-.006553-.855629-1.204627-.855629-2.239066s.382317-1.505804.855629-1.505804.855629.471366.855629,1.505804Z"/>
            <path class="cls-3" d="M359.979498,37.78332c0,1.034557-.858007,2.244038-.85418,2.244038.004395,0-.85418-1.209481-.85418-2.244038s.382429-1.502423.85418-1.502423.85418.467866.85418,1.502423Z"/>
            <path class="cls-3" d="M366.586614,37.190646c0,1.034439-.855629,2.232513-.855629,2.239066,0-.006553-.855629-1.204627-.855629-2.239066s.382317-1.505804.855629-1.505804.855629.471366.855629,1.505804Z"/>
            <path class="cls-3" d="M371.819622,37.190646c0,1.034439.855629,2.232513.855629,2.239066,0-.006553.855629-1.204627.855629-2.239066,0-1.034439-.382317-1.505804-.855629-1.505804s-.855629.471366-.855629,1.505804Z"/>
            <path class="cls-3" d="M363.829507,46.297958c0,1.034439-.855629,2.232513-.855629,2.239066,0-.006553-.855629-1.204627-.855629-2.239066s.382317-1.505804.855629-1.505804.855629.471366.855629,1.505804Z"/>
            <path class="cls-3" d="M368.826046,46.297958c0,1.034439.855629,2.232513.855629,2.239066,0-.006553.855629-1.204627.855629-2.239066,0-1.034439-.382317-1.505804-.855629-1.505804s-.855629.471366-.855629,1.505804Z"/>
            <path class="cls-3" d="M370.196451,28.726272c0,1.034557-.858007,2.244038-.85418,2.244038.004395,0-.85418-1.209481-.85418-2.244038s.382429-1.502423.85418-1.502423.85418.467866.85418,1.502423Z"/>
            <path class="cls-3" d="M376.690895,28.730449c0,1.034439-.855629,2.232513-.855629,2.239066,0-.006553-.855629-1.204627-.855629-2.239066s.382317-1.505804.855629-1.505804.855629.471366.855629,1.505804Z"/>
            <path class="cls-3" d="M379.166797,37.463939c0,1.034439.855629,2.232513.855629,2.239066,0-.006553.855629-1.204627.855629-2.239066,0-1.034439-.382317-1.505804-.855629-1.505804s-.855629.471366-.855629,1.505804Z"/>
            <path class="cls-3" d="M375.68825,46.297958c0,1.034439.855629,2.232513.855629,2.239066,0-.006553.855629-1.204627.855629-2.239066,0-1.034439-.382317-1.505804-.855629-1.505804s-.855629.471366-.855629,1.505804Z"/>
            <path class="cls-3" d="M384.038069,29.003742c0,1.034439-.855629,2.232513-.855629,2.239066,0-.006553-.855629-1.204627-.855629-2.239066s.382317-1.505804.855629-1.505804.855629.471366.855629,1.505804Z"/>
            <path class="cls-4" d="M381.803479,0l-7.832642,10.715743-.578458.076512-.033844.008513h-.025539c-.051077.008513-.11918.017026-.212613.017026h-.017026l-.085128-.008513c-.493122-.017026-.977938-.221126-1.343575-.569789l-1.607473-1.522345-.51866-.493277,2.075056-8.223869h10.179902Z"/>
            <path class="cls-4" d="M379.949548,11.225995l-7.994386,3.62294-.782351.221126c-.501842.2381-1.046041.348663-1.590447.348663-.31456,0-.63784-.033999-.960913-.119076l-3.095767-1.309679-5.04313-2.296234,5.672457.544303c.042564.008513.085128.008513.127693.008513.37415,0,.714456-.153075.9524-.39974.127693-.119024.221126-.263638.289229-.425227.110667-.246613.135998-.53579.068103-.833428l-.765533-3.1892,2.364285,2.245209,1.607265,1.522293c.595483.561328,1.369321.884453,2.168698.918504.051077.008513.093641.008513.144718.008513.153023,0,.297534-.008513.442252-.034051l6.395426-.833428Z"/>
          </g>
        </g>
        <g>
          <g>
            <g>
              <path class="cls-4" d="M56.126379,36.205473c-.095893,3.772701-1.892107,8.133497-4.437226,11.132673-2.379519,2.821899-5.316426,7.678563-9.407621,8.137094-2.471459.549456-4.227744-1.720745-6.491604-1.907017-1.713337.006867-3.054614,1.661275-4.90772,1.887738-1.420696.197637-2.80862.014376-4.153335-.708922-5.957393-4.161261-11.260145-12.002955-11.464992-19.221877-1.348797-10.082528,4.793688-21.239911,14.301519-20.051776,1.521723.265518,3.055495,1.667142,3.694746,2.933849.613381,1.209195,1.572452,1.976311,2.96105,1.757911,2.0829-.301441,1.96829-2.555797,3.804833-3.821532.748835-.559111,1.656458-.857256,2.39935-.97038,10.700793-1.325751,14.335986,11.587424,13.725143,20.397846l-.024142.434393Z"/>
              <path class="cls-3" d="M33.586211,31.418849h.471679v.471679c0,1.65732-1.345534,3.002854-3.002854,3.002854h-.471679v-.471679c0-1.657321,1.345534-3.002855,3.002855-3.002855Z"/>
              <path class="cls-3" d="M40.535778,37.792705h.472191v.472192c0,1.657037-1.345304,3.002341-3.002341,3.002341h-.472192v-.472192c0-1.657037,1.345304-3.002342,3.002342-3.002342Z"/>
              <path class="cls-3" d="M37.940977,34.893382h.476244c1.65591,0,2.998289-1.34238,2.998289-2.998289v-.476244s-.476244,0-.476244,0c-1.65591,0-2.998289,1.34238-2.998289,2.998289v.476244Z"/>
              <path class="cls-3" d="M31.073137,41.267239h.477548c1.655189,0,2.996985-1.341796,2.996985-2.996985v-.477548s-.477548,0-.477548,0c-1.655189,0-2.996986,1.341796-2.996985,2.996985v.477548Z"/>
            </g>
            <polygon class="cls-4" points="34.879039 12.865266 36.935559 0 47.136899 0 37.46319 12.865266 34.879039 12.865266"/>
          </g>
          <g>
            <path class="cls-4" d="M340.435225,105.868484c.007625,0,.01202.008659.00752.014814l-9.378,12.827011h-4.01939c-.006069,0-.010518-.005711-.009033-.011595l1.557237-6.171621c.987885-3.915174,4.509534-6.658608,8.547418-6.658608h3.294247Z"/>
            <path class="cls-4" d="M348.754709,141.359821c.076408,14.70432-18.982177,20.776569-21.635691,20.070679-2.262131-1.998545-5.749073-2.194132-9.576113-4.06514-6.106197-2.9851-9.814265-9.414525-9.652521-16.209639.178562-6.999266,3.76745-14.109044,10.094773-17.332244.927069-.552815,1.887982-1.012042,2.866127-1.394756-1.70942,1.216142-3.172174,2.763973-4.345908,4.515905-6.803627,10.171441-1.462755,18.446335-1.258654,18.760999-.101946-.357176-2.738435-9.227398,2.712896-17.272706,4.668981-6.888651,12.323061-6.888651,15.248778-6.608039,8.691608,2.219723,15.988565,9.720728,15.546312,19.534941Z"/>
          </g>
          <g>
            <path class="cls-4" d="M242.357474,0l-9.388831,12.841825h-4.031348l3.240277-12.841825h10.179902Z"/>
            <path class="cls-4" d="M250.657907,35.489402c0,3.69099-.875784,7.05024-2.619255,10.077852-1.751984,3.019151-4.158833,5.442922-7.237366,7.262905-3.070228,1.819983-6.599526,2.729922-10.57959,2.729922-3.94622,0-7.458493-.909939-10.554259-2.729922-3.104072-1.819983-5.527947-4.243754-7.271418-7.262905-1.751776-3.027612-2.619255-6.386861-2.619255-10.077852,0-3.682478.867479-7.058753,2.619255-10.10339,1.743471-3.053098,4.167346-5.485435,7.271418-7.305365,3.095767-1.819983,6.608039-2.729974,10.554259-2.729974,3.980064,0,7.509362.909991,10.57959,2.729974,3.078533,1.819931,5.485383,4.252267,7.237366,7.305365,1.743471,3.044638,2.619255,6.420912,2.619255,10.10339Z"/>
            <path class="cls-3" d="M226.150383,34.621923h-12.408874c-.492495,0-.895753-.420025-.849016-.910297.333894-3.502519,1.713764-6.696958,3.821975-9.281193.312262-.38277.89547-.396029,1.24477-.046731l8.79073,8.790688c.534177.534175.155853,1.447533-.599586,1.447533Z"/>
            <path class="cls-3" d="M226.749977,37.736362l-8.766097,8.766097c-.348971.348971-.931516.336144-1.244001-.045843-2.106779-2.57536-3.487872-5.760069-3.841507-9.252639-.049809-.491927.354002-.915147.848443-.915147h12.403575c.755438,0,1.133763.913357.599587,1.447532Z"/>
            <path class="cls-3" d="M229.379548,18.944917v12.439262c0,.755441-.913363,1.133764-1.447536.599583l-8.791605-8.79173c-.348904-.348909-.336133-.931292.04563-1.243908,2.583758-2.115777,5.77776-3.503868,9.279915-3.851883.491396-.048831.913596.35486.913596.848676Z"/>
            <path class="cls-3" d="M229.379548,39.526626v12.362689c0,.4938-.422136.897385-.913517.848564-3.484404-.346189-6.666951-1.718166-9.241425-3.809746-.383855-.311855-.397656-.895897-.047946-1.245612l8.755352-8.755478c.534174-.534181,1.447536-.155858,1.447536.599583Z"/>
            <path class="cls-3" d="M241.211623,48.928248c-2.569394,2.091547-5.757662,3.463489-9.243007,3.809647-.491379.048803-.913493-.354772-.913493-.848568v-12.3627c0-.755441.913363-1.133764,1.447536-.599583l8.756126,8.756252c.349427.349432.336082.932983-.047163,1.244953Z"/>
            <path class="cls-3" d="M241.295034,23.191263l-8.792374,8.7925c-.534174.534181-1.447536.155858-1.447536-.599583v-12.439273c0-.493812.422178-.897494.913571-.84868,3.503098.347985,6.702836,1.736043,9.281491,3.851789.381152.31273.393469.894621.044848,1.243248Z"/>
            <path class="cls-3" d="M247.5363,37.203977c-.353635,3.49257-1.734728,6.677279-3.841507,9.252639-.312485.381987-.89503.394814-1.244001.045843l-8.766097-8.766097c-.534175-.534175-.155851-1.447532.599587-1.447532h12.403575c.494442,0,.898253.42322.848443.915147Z"/>
            <path class="cls-3" d="M246.693169,34.621923h-12.417394c-.755439,0-1.133763-.913359-.599586-1.447533l8.799144-8.799102c.349336-.349335.932648-.336063,1.244853.04682,2.108103,2.585336,3.488112,5.786004,3.822003,9.289542.046723.490271-.356528.910274-.84902.910274Z"/>
          </g>
          <g>
            <path class="cls-4" d="M145.745182,106.816362l-12.749092,32.684581h-4.113038l6.488632-32.684581h10.373498Z"/>
            <path class="cls-4" d="M154.191032,141.494656c0,3.749374-.883238,7.169647-2.666942,10.252259-1.775037,3.082612-4.22561,5.550466-7.360173,7.394843-3.125896,1.853045-6.728081,2.779514-10.780553,2.779514-4.009028,0-7.585317-.926469-10.745777-2.779514-3.151899-1.844377-5.6197-4.312232-7.394843-7.394843-1.78381-3.082612-2.666942-6.502885-2.666942-10.252259"/>
            <rect class="cls-4" x="122.414203" y="157.375362" width="21.938427" height="4.54591"/>
            <path class="cls-3" d="M135.488951,139.631167l4.26875-10.524699s2.668858-1.146148,3.023699,1.634251c0,0,1.233625-2.624299,3.312757-2.964521,2.674469-.43764,4.263184,1.896553,4.263168,3.821873-.000003.344765.000016,1.667121-.789531,1.943462-.530983.185844-1.352792,1.467469-.744119,2.354455,0,0,.853518-1.953322,2.963128-1.356481,2.921502.826537,2.402468,4.958749,2.402468,4.958749l-18.700322.13291Z"/>
            <path class="cls-3" d="M126.599522,139.500943l2.19582-10.473981s.542287-1.925959-1.069936-3.171756c-1.20145-.928384-4.255807-.893933-5.726613,1.352674-1.891332,2.888945.990311,4.032722-.875237,5.306418,0,0-2.489277-3.338649-4.582836-1.178902-1.891684,1.951489.939462,2.87152-.548683,4.615985,0,0-1.018089-.871184-2.466972.456101-1.759916,1.612215-1.193001,3.091759-1.193001,3.091759l14.26746.001702Z"/>
          </g>
        </g>
      </g>
    </pattern>
  </defs>
  <g id="Capa_2-2" data-name="Capa 2">
    <rect class="cls-2" width="1920" height="936.134848"/>
  </g>
</svg>